<mxfile host="app.diagrams.net" agent="Mozilla/5.0 (Windows NT 10.0; Win64; x64) AppleWebKit/537.36 (KHTML, like Gecko) Chrome/134.0.0.0 Safari/537.36" version="26.1.1">
  <diagram name="第 1 页" id="S3lboAHqoqEqf9X3p3CB">
    <mxGraphModel dx="5290" dy="2154" grid="1" gridSize="10" guides="1" tooltips="1" connect="1" arrows="1" fold="1" page="1" pageScale="1" pageWidth="827" pageHeight="1169" math="0" shadow="0">
      <root>
        <mxCell id="0" />
        <mxCell id="1" parent="0" />
        <mxCell id="SHu4WL5RGhJA_ZN3Gl7_-1" value="" style="edgeStyle=orthogonalEdgeStyle;rounded=0;orthogonalLoop=1;jettySize=auto;html=1;" edge="1" parent="1" source="SHu4WL5RGhJA_ZN3Gl7_-4" target="SHu4WL5RGhJA_ZN3Gl7_-19">
          <mxGeometry relative="1" as="geometry" />
        </mxCell>
        <mxCell id="SHu4WL5RGhJA_ZN3Gl7_-2" value="" style="edgeStyle=orthogonalEdgeStyle;rounded=0;orthogonalLoop=1;jettySize=auto;html=1;" edge="1" parent="1" source="SHu4WL5RGhJA_ZN3Gl7_-4" target="SHu4WL5RGhJA_ZN3Gl7_-22">
          <mxGeometry relative="1" as="geometry" />
        </mxCell>
        <mxCell id="SHu4WL5RGhJA_ZN3Gl7_-3" style="edgeStyle=orthogonalEdgeStyle;rounded=0;orthogonalLoop=1;jettySize=auto;html=1;" edge="1" parent="1" source="SHu4WL5RGhJA_ZN3Gl7_-4" target="SHu4WL5RGhJA_ZN3Gl7_-31">
          <mxGeometry relative="1" as="geometry" />
        </mxCell>
        <mxCell id="SHu4WL5RGhJA_ZN3Gl7_-4" value="开始" style="html=1;dashed=0;whiteSpace=wrap;shape=mxgraph.dfd.start" vertex="1" parent="1">
          <mxGeometry x="350" y="510" width="80" height="30" as="geometry" />
        </mxCell>
        <mxCell id="SHu4WL5RGhJA_ZN3Gl7_-5" value="" style="edgeStyle=orthogonalEdgeStyle;rounded=0;orthogonalLoop=1;jettySize=auto;html=1;" edge="1" parent="1" source="SHu4WL5RGhJA_ZN3Gl7_-8" target="SHu4WL5RGhJA_ZN3Gl7_-9">
          <mxGeometry relative="1" as="geometry" />
        </mxCell>
        <mxCell id="SHu4WL5RGhJA_ZN3Gl7_-6" value="上阶段设计确认" style="edgeLabel;html=1;align=center;verticalAlign=middle;resizable=0;points=[];" vertex="1" connectable="0" parent="SHu4WL5RGhJA_ZN3Gl7_-5">
          <mxGeometry x="0.1628" y="1" relative="1" as="geometry">
            <mxPoint as="offset" />
          </mxGeometry>
        </mxCell>
        <mxCell id="SHu4WL5RGhJA_ZN3Gl7_-7" value="" style="edgeStyle=orthogonalEdgeStyle;rounded=0;orthogonalLoop=1;jettySize=auto;html=1;" edge="1" parent="1" source="SHu4WL5RGhJA_ZN3Gl7_-8" target="SHu4WL5RGhJA_ZN3Gl7_-13">
          <mxGeometry relative="1" as="geometry" />
        </mxCell>
        <mxCell id="SHu4WL5RGhJA_ZN3Gl7_-8" value="获取上一阶段设计确认（design_confirm按时间排序取is_revoke=flase的最近一个确认）" style="whiteSpace=wrap;html=1;strokeWidth=2;" vertex="1" parent="1">
          <mxGeometry x="330" y="850" width="120" height="90" as="geometry" />
        </mxCell>
        <mxCell id="SHu4WL5RGhJA_ZN3Gl7_-9" value="公用数据：&lt;div&gt;design(设计)&lt;/div&gt;&lt;div&gt;onlineDesign(设计)&lt;/div&gt;&lt;div&gt;patient(患者)&lt;/div&gt;&lt;div&gt;lasDesignConfirm（上阶段设计确认）&lt;/div&gt;&lt;div&gt;上阶段设计确认产系&lt;div&gt;病例产系&lt;/div&gt;&lt;div&gt;设计产系&lt;/div&gt;&lt;div&gt;全能产系&lt;/div&gt;&lt;div&gt;是否需要赠送赠品&lt;/div&gt;&lt;div&gt;是否产系升级&lt;/div&gt;&lt;div&gt;是否同产系组&lt;/div&gt;&lt;div&gt;是否新病例阶段&lt;/div&gt;&lt;div&gt;设计详情（design_detail）&lt;/div&gt;&lt;div&gt;&lt;br style=&quot;font-size: 11px; text-wrap-mode: nowrap; background-color: rgb(255, 255, 255);&quot;&gt;&lt;/div&gt;&lt;/div&gt;" style="whiteSpace=wrap;html=1;strokeWidth=2;" vertex="1" parent="1">
          <mxGeometry x="-413" y="500" width="320" height="447.5" as="geometry" />
        </mxCell>
        <mxCell id="SHu4WL5RGhJA_ZN3Gl7_-10" style="edgeStyle=orthogonalEdgeStyle;rounded=0;orthogonalLoop=1;jettySize=auto;html=1;entryX=0.5;entryY=1;entryDx=0;entryDy=0;" edge="1" parent="1" source="SHu4WL5RGhJA_ZN3Gl7_-13" target="SHu4WL5RGhJA_ZN3Gl7_-9">
          <mxGeometry relative="1" as="geometry" />
        </mxCell>
        <mxCell id="SHu4WL5RGhJA_ZN3Gl7_-11" value="上阶段设计确认产系&lt;div&gt;病例产系&lt;/div&gt;&lt;div&gt;设计产系&lt;/div&gt;&lt;div&gt;全能产系&lt;/div&gt;&lt;div&gt;是否需要赠送赠品&lt;/div&gt;&lt;div&gt;是否产系升级&lt;/div&gt;&lt;div&gt;是否同产系组&lt;/div&gt;&lt;div&gt;是否新病例阶段&lt;/div&gt;&lt;div&gt;设计详情（design_detail）&lt;/div&gt;&lt;div&gt;&lt;br&gt;&lt;/div&gt;" style="edgeLabel;html=1;align=center;verticalAlign=middle;resizable=0;points=[];" vertex="1" connectable="0" parent="SHu4WL5RGhJA_ZN3Gl7_-10">
          <mxGeometry x="-0.1037" y="-2" relative="1" as="geometry">
            <mxPoint x="64" y="2" as="offset" />
          </mxGeometry>
        </mxCell>
        <mxCell id="SHu4WL5RGhJA_ZN3Gl7_-12" value="" style="edgeStyle=orthogonalEdgeStyle;rounded=0;orthogonalLoop=1;jettySize=auto;html=1;entryX=0.5;entryY=0;entryDx=0;entryDy=0;" edge="1" parent="1" source="SHu4WL5RGhJA_ZN3Gl7_-13" target="SHu4WL5RGhJA_ZN3Gl7_-15">
          <mxGeometry relative="1" as="geometry">
            <mxPoint x="390" y="1170" as="targetPoint" />
          </mxGeometry>
        </mxCell>
        <UserObject label="获取公共数据" link="https://app.diagrams.net/#G1i6wwl9jgPCmncqw2SsvMfuj65RACjYAs#%7B%22pageId%22%3A%22tLn1UPH_PvJUF_C-S3hZ%22%7D" id="SHu4WL5RGhJA_ZN3Gl7_-13">
          <mxCell style="whiteSpace=wrap;html=1;strokeWidth=2;" vertex="1" parent="1">
            <mxGeometry x="330" y="1035" width="120" height="60" as="geometry" />
          </mxCell>
        </UserObject>
        <mxCell id="SHu4WL5RGhJA_ZN3Gl7_-14" value="" style="edgeStyle=orthogonalEdgeStyle;rounded=0;orthogonalLoop=1;jettySize=auto;html=1;" edge="1" parent="1" source="SHu4WL5RGhJA_ZN3Gl7_-15" target="SHu4WL5RGhJA_ZN3Gl7_-27">
          <mxGeometry relative="1" as="geometry" />
        </mxCell>
        <UserObject label="重新计算预计发货时间（reCalculateExpectDeliveryDate）" linkTarget="_blank" id="SHu4WL5RGhJA_ZN3Gl7_-15">
          <mxCell style="whiteSpace=wrap;html=1;strokeWidth=2;" vertex="1" parent="1">
            <mxGeometry x="295" y="1210" width="190" height="60" as="geometry" />
          </mxCell>
        </UserObject>
        <mxCell id="SHu4WL5RGhJA_ZN3Gl7_-16" style="edgeStyle=orthogonalEdgeStyle;rounded=0;orthogonalLoop=1;jettySize=auto;html=1;" edge="1" parent="1" source="SHu4WL5RGhJA_ZN3Gl7_-19" target="SHu4WL5RGhJA_ZN3Gl7_-8">
          <mxGeometry relative="1" as="geometry" />
        </mxCell>
        <mxCell id="SHu4WL5RGhJA_ZN3Gl7_-17" style="edgeStyle=orthogonalEdgeStyle;rounded=0;orthogonalLoop=1;jettySize=auto;html=1;" edge="1" parent="1" source="SHu4WL5RGhJA_ZN3Gl7_-19" target="SHu4WL5RGhJA_ZN3Gl7_-9">
          <mxGeometry relative="1" as="geometry">
            <Array as="points">
              <mxPoint x="390" y="630" />
              <mxPoint x="120" y="630" />
              <mxPoint x="120" y="724" />
            </Array>
          </mxGeometry>
        </mxCell>
        <mxCell id="SHu4WL5RGhJA_ZN3Gl7_-18" value="设计&lt;div&gt;患者&lt;/div&gt;" style="edgeLabel;html=1;align=center;verticalAlign=middle;resizable=0;points=[];" vertex="1" connectable="0" parent="SHu4WL5RGhJA_ZN3Gl7_-17">
          <mxGeometry x="-0.2778" y="2" relative="1" as="geometry">
            <mxPoint as="offset" />
          </mxGeometry>
        </mxCell>
        <UserObject label="通用逻辑:&lt;div&gt;判断是否可以设计确认&lt;/div&gt;" link="https://app.diagrams.net/#G1Pv3DFzpzB3aZZpC8H5cUwDDSRMoxTNsi#%7B%22pageId%22%3A%22fc4eV3rknM9199mZT5kn%22%7D" linkTarget="_blank" id="SHu4WL5RGhJA_ZN3Gl7_-19">
          <mxCell style="whiteSpace=wrap;html=1;dashed=0;" vertex="1" parent="1">
            <mxGeometry x="330" y="720" width="120" height="60" as="geometry" />
          </mxCell>
        </UserObject>
        <mxCell id="SHu4WL5RGhJA_ZN3Gl7_-20" style="edgeStyle=orthogonalEdgeStyle;rounded=0;orthogonalLoop=1;jettySize=auto;html=1;" edge="1" parent="1" source="SHu4WL5RGhJA_ZN3Gl7_-22" target="SHu4WL5RGhJA_ZN3Gl7_-23">
          <mxGeometry relative="1" as="geometry" />
        </mxCell>
        <mxCell id="SHu4WL5RGhJA_ZN3Gl7_-21" value="是" style="edgeLabel;html=1;align=center;verticalAlign=middle;resizable=0;points=[];" vertex="1" connectable="0" parent="SHu4WL5RGhJA_ZN3Gl7_-20">
          <mxGeometry x="-0.7233" relative="1" as="geometry">
            <mxPoint as="offset" />
          </mxGeometry>
        </mxCell>
        <mxCell id="SHu4WL5RGhJA_ZN3Gl7_-22" value="type=20" style="rhombus;whiteSpace=wrap;html=1;dashed=0;" vertex="1" parent="1">
          <mxGeometry x="555" y="610" width="80" height="80" as="geometry" />
        </mxCell>
        <UserObject label="&lt;b&gt;&lt;i&gt;&lt;font style=&quot;color: rgb(255, 0, 0);&quot;&gt;不做&lt;/font&gt;&lt;/i&gt;&lt;/b&gt;重新计算预计发货时间" link="https://www.draw.io/#G1d5q_Vu1W1HdfbtQOXbvXx-phjgY9VFuL" linkTarget="_blank" id="SHu4WL5RGhJA_ZN3Gl7_-23">
          <mxCell style="whiteSpace=wrap;html=1;strokeWidth=2;" vertex="1" parent="1">
            <mxGeometry x="500" y="1210" width="190" height="60" as="geometry" />
          </mxCell>
        </UserObject>
        <mxCell id="SHu4WL5RGhJA_ZN3Gl7_-24" value="最终统一更新：&lt;div&gt;design(设计)&lt;/div&gt;&lt;div&gt;onlineDesign(设计)&lt;/div&gt;&lt;div&gt;&lt;br&gt;&lt;/div&gt;" style="whiteSpace=wrap;html=1;strokeWidth=2;" vertex="1" parent="1">
          <mxGeometry x="-780" y="1017.5" width="320" height="115" as="geometry" />
        </mxCell>
        <mxCell id="SHu4WL5RGhJA_ZN3Gl7_-25" style="edgeStyle=orthogonalEdgeStyle;rounded=0;orthogonalLoop=1;jettySize=auto;html=1;" edge="1" parent="1" source="SHu4WL5RGhJA_ZN3Gl7_-27" target="SHu4WL5RGhJA_ZN3Gl7_-24">
          <mxGeometry relative="1" as="geometry" />
        </mxCell>
        <mxCell id="SHu4WL5RGhJA_ZN3Gl7_-26" value="" style="edgeStyle=orthogonalEdgeStyle;rounded=0;orthogonalLoop=1;jettySize=auto;html=1;" edge="1" parent="1" source="SHu4WL5RGhJA_ZN3Gl7_-27" target="SHu4WL5RGhJA_ZN3Gl7_-29">
          <mxGeometry relative="1" as="geometry" />
        </mxCell>
        <mxCell id="SHu4WL5RGhJA_ZN3Gl7_-27" value="设置design/onlineDesign的设计确认时间为当前时间&lt;div&gt;（需要确认为什么？&lt;span style=&quot;font-family: &amp;quot;JetBrains Mono&amp;quot;, monospace; font-size: 9.8pt; color: rgb(128, 128, 128);&quot;&gt;//&lt;/span&gt;&lt;span style=&quot;font-size: 9.8pt; color: rgb(128, 128, 128); font-family: 宋体, monospace;&quot;&gt;更新设计的确认时间（主要针对预付款合同，异步任务长时间不能动画确认成功的）&lt;/span&gt;&lt;span style=&quot;background-color: transparent; color: light-dark(rgb(0, 0, 0), rgb(255, 255, 255));&quot;&gt;）&lt;/span&gt;&lt;/div&gt;" style="whiteSpace=wrap;html=1;strokeWidth=2;" vertex="1" parent="1">
          <mxGeometry x="220" y="1350" width="340" height="60" as="geometry" />
        </mxCell>
        <mxCell id="SHu4WL5RGhJA_ZN3Gl7_-28" value="报错" style="strokeWidth=2;html=1;shape=mxgraph.flowchart.terminator;whiteSpace=wrap;" vertex="1" parent="1">
          <mxGeometry x="-50" y="510" width="100" height="60" as="geometry" />
        </mxCell>
        <mxCell id="SHu4WL5RGhJA_ZN3Gl7_-29" value="获取是否需要赠送赠品（upgrade_not_send_gift_product_series_ids）" style="rounded=1;whiteSpace=wrap;html=1;strokeWidth=2;" vertex="1" parent="1">
          <mxGeometry x="215" y="1490" width="350" height="60" as="geometry" />
        </mxCell>
        <mxCell id="SHu4WL5RGhJA_ZN3Gl7_-30" style="edgeStyle=orthogonalEdgeStyle;rounded=0;orthogonalLoop=1;jettySize=auto;html=1;entryX=0.5;entryY=0;entryDx=0;entryDy=0;" edge="1" parent="1" source="SHu4WL5RGhJA_ZN3Gl7_-31" target="SHu4WL5RGhJA_ZN3Gl7_-32">
          <mxGeometry relative="1" as="geometry" />
        </mxCell>
        <mxCell id="SHu4WL5RGhJA_ZN3Gl7_-31" value="type=3||type=4||code=20" style="rhombus;whiteSpace=wrap;html=1;dashed=0;" vertex="1" parent="1">
          <mxGeometry x="747" y="610" width="193" height="80" as="geometry" />
        </mxCell>
        <UserObject label="&lt;b&gt;&lt;i&gt;&lt;font style=&quot;color: rgb(255, 0, 0);&quot;&gt;不做&lt;/font&gt;&lt;/i&gt;&lt;/b&gt;重新计算预计发货时间" link="https://www.draw.io/#G1d5q_Vu1W1HdfbtQOXbvXx-phjgY9VFuL" linkTarget="_blank" id="SHu4WL5RGhJA_ZN3Gl7_-32">
          <mxCell style="whiteSpace=wrap;html=1;strokeWidth=2;" vertex="1" parent="1">
            <mxGeometry x="748.5" y="1210" width="190" height="60" as="geometry" />
          </mxCell>
        </UserObject>
        <mxCell id="SHu4WL5RGhJA_ZN3Gl7_-33" value="" style="endArrow=none;dashed=1;html=1;rounded=0;exitX=1;exitY=0.5;exitDx=0;exitDy=0;entryX=0;entryY=0.5;entryDx=0;entryDy=0;" edge="1" parent="1" source="SHu4WL5RGhJA_ZN3Gl7_-23" target="SHu4WL5RGhJA_ZN3Gl7_-32">
          <mxGeometry width="50" height="50" relative="1" as="geometry">
            <mxPoint x="910" y="1010" as="sourcePoint" />
            <mxPoint x="960" y="960" as="targetPoint" />
          </mxGeometry>
        </mxCell>
        <mxCell id="SHu4WL5RGhJA_ZN3Gl7_-34" value="type：产系类型&lt;div&gt;code：产系编码&lt;/div&gt;&lt;div&gt;虚线：逻辑相同&lt;/div&gt;" style="rounded=0;whiteSpace=wrap;html=1;" vertex="1" parent="1">
          <mxGeometry x="445" y="360" width="735" height="60" as="geometry" />
        </mxCell>
      </root>
    </mxGraphModel>
  </diagram>
</mxfile>
